<?xml version="1.0" encoding="UTF-8" standalone="no"?> <svg xmlns="http://www.w3.org/2000/svg" version="1.0" width="500.000000pt" height="500.000000pt" viewBox="0 0 500.000000 500.000000" preserveAspectRatio="xMidYMid meet"><g transform="translate(0.000000,500.000000) scale(0.100000,-0.100000)" fill="#000000" stroke="none"><path d="M3525 4556 c-33 -33 -46 -88 -35 -147 14 -71 39 -114 95 -160 45 -37 53 -40 89 -35 42 7 87 35 111 69 29 42 13 144 -31 197 -14 16 -30 27 -36 24 -5 -3 -24 7 -41 24 -62 58 -112 68 -152 28z m105 -66 c0 -5 -4 -10 -10 -10 -5 0 -10 -7 -10 -15 0 -8 5 -15 10 -15 6 0 10 5 10 10 0 6 6 10 13 10 10 0 13 -13 10 -47 -2 -27 1 -55 6 -63 16 -24 25 -3 11 29 -6 17 -10 36 -7 43 5 14 37 -52 37 -77 0 -9 -8 -19 -17 -22 -10 -4 -24 -15 -31 -25 -16 -23 -34 -24 -25 -1 5 11 3 14 -6 8 -16 -9 -60 39 -63 69 -7 93 -6 97 15 106 30 12 57 12 57 0z"></path><path d="M3607 4411 c-6 -26 7 -61 24 -61 6 0 7 5 3 12 -4 6 -10 25 -14 42 -6 30 -6 30 -13 7z"></path><path d="M1930 4525 c-7 -8 -10 -22 -6 -30 5 -13 8 -13 26 2 11 10 20 23 20 30 0 18 -25 16 -40 -2z"></path><path d="M3040 4435 c123 -76 135 -98 128 -257 -3 -89 -2 -96 14 -87 9 5 23 27 29 48 19 62 -4 216 -24 159 -2 -7 -9 3 -16 23 -6 20 -22 46 -35 58 -23 22 -134 91 -145 91 -3 0 19 -16 49 -35z"></path><path d="M1514 4212 c-200 -125 -212 -131 -206 -104 1 8 -2 11 -8 7 -8 -5 -7 -12 2 -23 9 -13 7 -12 -9 1 -12 11 -27 16 -32 12 -16 -9 -13 -35 4 -41 8 -4 15 -12 15 -19 0 -7 15 2 33 19 17 18 66 52 107 76 79 45 178 108 195 122 28 24 -21 0 -101 -50z"></path><path d="M1575 4214 c-11 -8 -66 -43 -122 -76 -105 -61 -150 -96 -68 -52 71 37 84 30 40 -22 -26 -30 -34 -54 -12 -36 17 14 108 62 118 62 5 0 9 -50 9 -112 l0 -111 30 41 c16 22 36 44 45 49 13 8 15 29 13 138 -3 139 -9 153 -53 119z"></path><path d="M1990 4191 c0 -5 -3 -16 -6 -25 -5 -12 0 -16 19 -16 19 0 25 5 25 25 0 18 -6 25 -19 25 -11 0 -19 -4 -19 -9z"></path><path d="M2219 4173 c-1 -5 -1 -11 -1 -15 2 -9 -17 -23 -86 -62 -67 -38 -84 -44 -64 -24 22 22 14 39 -15 32 -24 -6 -26 -5 -15 8 10 13 9 15 -13 10 -14 -2 -32 1 -40 8 -9 8 -15 8 -15 2 0 -6 -14 -21 -31 -33 l-31 -22 -44 22 c-25 11 -46 21 -49 21 -2 0 0 -13 5 -30 5 -16 6 -30 3 -30 -3 0 1 -8 8 -17 13 -16 12 -17 -3 -4 -15 11 -19 11 -24 -4 -4 -9 -2 -27 5 -41 17 -39 14 -199 -5 -237 -16 -30 -113 -176 -124 -187 -3 -3 -19 -31 -35 -62 -16 -31 -31 -55 -34 -53 -4 5 -38 -50 -47 -77 -3 -9 -14 -18 -25 -21 -13 -4 -19 -14 -19 -36 0 -25 8 -36 43 -58 23 -15 45 -31 48 -36 8 -11 10 -199 3 -279 l-6 -67 -59 29 c-32 17 -69 30 -83 30 -32 0 -41 -28 -17 -54 24 -26 31 -61 12 -61 -18 0 -80 47 -81 62 0 6 -8 13 -17 15 -13 3 -4 12 30 32 46 27 55 36 39 36 -11 0 -191 -108 -215 -128 -10 -9 -17 -25 -15 -36 4 -26 77 -77 105 -73 14 3 20 0 16 -9 -3 -8 5 -16 21 -20 14 -3 26 -9 26 -13 0 -4 9 -7 19 -7 11 0 17 4 15 8 -11 17 76 11 94 -7 11 -10 11 -14 1 -20 -7 -5 -10 -4 -5 3 3 6 2 13 -4 17 -5 3 -10 1 -10 -5 0 -6 -4 -8 -10 -5 -15 9 -12 -6 4 -24 12 -14 12 -19 1 -35 -13 -17 -21 -14 -151 63 -75 45 -138 80 -140 79 -1 -2 -4 -34 -5 -72 -2 -55 1 -70 15 -78 9 -5 14 -13 11 -17 -2 -5 5 -17 17 -27 21 -19 21 -19 8 6 -13 24 -13 24 10 9 29 -19 47 -46 38 -55 -4 -3 -26 5 -50 19 -67 39 -158 87 -164 87 -4 0 -1 -6 5 -14 9 -11 1 -20 -41 -46 -29 -19 -75 -48 -103 -65 -51 -32 -101 -61 -190 -110 -91 -51 -126 -76 -120 -86 4 -5 11 -7 16 -4 5 4 9 -23 9 -64 0 -69 1 -71 31 -86 22 -12 34 -13 43 -6 17 15 44 -7 48 -39 2 -16 16 -32 43 -48 33 -19 50 -22 95 -18 l55 5 2 -43 c1 -24 9 -59 18 -76 l17 -33 -34 21 c-18 11 -76 43 -128 70 -52 27 -128 68 -169 91 -41 22 -75 41 -77 41 -2 0 -4 -19 -4 -43 0 -50 19 -81 63 -103 18 -9 78 -43 134 -76 98 -58 138 -88 115 -88 -6 0 -14 -15 -18 -32 -6 -29 -8 -31 -15 -13 -6 15 -8 9 -7 -21 1 -23 7 -41 12 -41 20 1 76 -25 76 -34 0 -6 -10 -5 -22 2 -17 8 -20 8 -12 0 6 -6 20 -13 32 -16 30 -5 43 -15 37 -26 -4 -5 5 -5 20 1 29 11 49 5 39 -12 -5 -8 7 -9 37 -6 24 3 39 4 32 1 -7 -2 -9 -11 -6 -19 4 -12 9 -10 24 7 20 23 25 40 12 38 -20 -3 -23 2 -8 17 13 13 13 19 3 33 -12 14 -11 14 4 3 9 -7 20 -27 23 -43 4 -16 11 -29 15 -29 5 0 6 -7 3 -17 -4 -11 -3 -14 5 -9 7 4 12 1 12 -8 0 -9 5 -16 11 -16 5 0 8 -4 5 -9 -3 -5 1 -12 10 -15 24 -9 27 -8 21 14 -3 11 -2 18 2 16 10 -7 44 155 34 164 -4 4 -46 28 -93 53 -47 25 -104 56 -128 70 -41 23 -42 25 -19 31 13 3 39 1 58 -4 38 -11 143 -3 174 13 18 9 18 8 7 -6 -12 -14 -14 -116 -2 -115 19 1 23 -4 10 -12 -10 -6 -11 -10 -3 -10 7 0 22 9 34 21 42 42 102 77 118 69 9 -5 24 -11 34 -14 10 -3 16 -10 13 -15 -6 -10 21 -24 33 -17 4 3 20 -6 36 -18 l29 -23 -39 -21 c-22 -11 -53 -34 -70 -52 l-30 -32 29 8 c23 5 27 4 21 -7 -5 -8 1 -6 13 4 11 11 18 25 16 32 -4 9 0 12 13 9 10 -3 35 4 56 15 21 11 46 17 55 14 10 -4 0 -11 -31 -20 -28 -8 -56 -25 -72 -45 -31 -37 -17 -52 18 -20 23 20 87 56 87 48 0 -3 -20 -19 -44 -37 -42 -30 -52 -59 -21 -59 21 0 98 92 84 100 -6 4 -7 10 -2 13 5 3 15 2 23 -3 11 -7 11 -12 2 -22 -10 -12 -6 -14 21 -12 17 2 23 1 12 -2 -49 -13 -77 -29 -97 -56 -17 -24 -18 -32 -7 -38 7 -5 17 -7 21 -4 4 3 18 -2 30 -10 22 -14 25 -13 65 24 22 21 36 41 30 43 -7 2 -9 8 -5 12 12 12 58 -12 58 -30 0 -8 -5 -15 -11 -15 -5 0 -7 5 -4 10 14 23 -18 8 -55 -26 -38 -35 -45 -62 -12 -49 9 3 13 3 9 -1 -4 -4 2 -14 14 -22 25 -17 14 -32 -27 -37 -36 -4 -51 4 -33 17 11 8 11 9 -1 6 -18 -5 -35 -64 -42 -143 l-6 -60 44 -27 c24 -15 44 -23 44 -18 0 5 12 4 26 -2 26 -12 26 -12 6 -28 -11 -9 -17 -21 -14 -26 15 -22 73 -55 83 -48 8 4 9 3 5 -4 -4 -7 -2 -12 3 -12 6 0 41 -19 78 -41 37 -23 72 -42 78 -43 6 -1 25 -12 42 -24 17 -12 34 -22 37 -22 4 0 20 -10 35 -21 17 -13 34 -18 42 -14 8 6 10 4 4 -5 -6 -10 -1 -11 21 -6 19 4 24 3 15 -3 -11 -7 -9 -11 8 -20 12 -7 26 -9 31 -6 5 3 12 0 16 -6 4 -8 3 -9 -4 -5 -7 4 -12 4 -12 1 0 -3 30 -20 68 -37 80 -37 210 -49 290 -28 72 20 164 65 217 108 6 4 54 30 108 57 54 28 108 60 120 71 12 12 32 24 45 28 12 4 20 11 17 16 -3 4 2 11 11 14 8 3 12 2 9 -4 -3 -6 1 -7 9 -4 9 3 16 10 16 16 0 5 5 6 10 3 13 -8 62 30 52 40 -4 4 0 6 8 4 21 -3 51 11 44 22 -5 9 0 11 29 13 13 1 26 10 57 38 10 9 22 13 26 10 4 -4 5 0 2 9 -5 12 0 15 24 14 17 -1 32 4 35 11 3 8 10 11 17 7 6 -4 5 1 -3 10 -7 9 -10 17 -5 18 5 0 19 2 31 3 12 1 20 -1 17 -5 -2 -4 17 4 43 17 70 36 167 96 171 106 2 4 10 8 17 8 7 0 15 4 17 8 2 5 33 23 71 41 37 18 65 37 61 42 -3 6 0 9 7 7 20 -4 80 23 73 33 -3 5 3 9 14 9 11 0 24 11 31 26 9 21 14 24 25 15 9 -8 16 -8 20 -2 3 5 0 12 -6 14 -7 3 -2 6 11 6 20 1 21 3 11 16 -10 12 -10 15 2 15 8 0 19 -4 26 -10 8 -7 9 -7 3 1 -5 6 -6 20 -3 32 5 20 6 20 14 1 7 -18 8 -18 5 0 -2 19 -37 33 -37 15 0 -5 -4 -9 -10 -9 -5 0 -10 14 -10 30 0 17 5 30 11 30 6 0 9 6 6 14 -7 18 8 31 125 99 115 68 138 98 138 178 l-1 54 -27 -31 c-32 -38 -99 -77 -114 -68 -7 4 -8 2 -4 -4 5 -8 -3 -12 -23 -12 -23 0 -31 5 -31 18 0 15 2 15 11 2 8 -12 9 -9 5 10 -3 14 1 38 9 53 8 15 10 25 6 22 -5 -2 -12 6 -15 20 -4 14 -14 25 -24 26 -9 0 -12 3 -5 5 9 4 9 13 2 32 -8 23 -7 25 4 10 9 -11 18 -14 28 -7 10 6 10 9 2 9 -8 0 -13 13 -13 29 0 25 4 29 23 26 12 -1 35 -8 50 -14 34 -13 77 -5 77 15 0 8 4 14 9 14 5 0 15 20 23 45 14 42 14 44 -1 33 -14 -11 -14 -11 0 7 9 11 20 35 24 53 4 18 13 36 21 39 16 6 19 63 3 63 -5 0 -7 -4 -4 -10 7 -12 -23 -2 -44 14 -12 9 -12 8 0 -11 8 -13 17 -23 21 -23 4 0 3 -13 -2 -29 -4 -16 -5 -32 -2 -36 4 -3 -1 -3 -9 0 -11 4 -14 14 -11 31 3 18 0 24 -14 24 -16 0 -17 2 -4 10 8 5 10 10 5 10 -19 0 -35 -23 -35 -52 0 -15 -4 -28 -10 -28 -14 0 -7 49 13 86 16 31 16 32 -8 36 -13 3 -22 2 -20 -3 3 -4 -3 -5 -14 -2 -20 5 -36 -21 -24 -39 3 -6 1 -8 -5 -4 -5 3 -13 0 -16 -6 -3 -7 -4 5 -3 27 2 33 -1 40 -15 39 -11 -1 -18 5 -18 17 0 22 -26 38 -51 32 -11 -3 -19 0 -19 6 0 6 13 14 29 17 23 5 28 10 23 28 -12 46 -44 58 -71 27 -10 -11 -22 -16 -29 -12 -8 5 -3 16 18 36 28 27 32 28 70 16 22 -6 40 -17 40 -23 0 -9 3 -9 12 0 10 10 6 18 -15 38 -23 21 -26 28 -16 40 16 19 7 26 -68 53 l-62 22 -56 -32 c-36 -20 -54 -36 -51 -45 3 -8 1 -14 -4 -14 -6 0 -10 12 -10 26 0 18 -5 25 -17 22 -9 -2 -18 -9 -21 -17 -3 -10 0 -12 14 -7 15 6 13 1 -7 -21 -39 -41 -62 -81 -54 -93 3 -5 0 -10 -8 -10 -18 0 -29 -24 -21 -45 4 -8 2 -15 -4 -15 -6 0 -9 -8 -8 -17 3 -22 56 -38 56 -17 0 8 10 19 23 25 13 6 28 24 34 40 6 16 16 29 22 29 14 0 14 -17 1 -25 -5 -3 -10 -11 -10 -16 0 -6 5 -7 10 -4 6 3 10 4 10 1 0 -2 -16 -14 -34 -26 -19 -11 -38 -30 -41 -42 -6 -16 -13 -19 -35 -15 -22 5 -29 2 -33 -13 -3 -12 -1 -18 5 -14 15 10 -1 -37 -21 -60 -9 -10 -24 -21 -33 -25 -15 -5 -16 -10 -5 -31 8 -15 21 -25 35 -25 12 0 30 -9 39 -19 17 -18 17 -19 1 -13 -12 4 -18 1 -18 -7 0 -7 -7 -19 -15 -26 -12 -10 -15 -9 -15 7 0 10 5 24 12 31 9 9 9 12 -3 12 -9 0 -26 11 -38 24 -13 14 -29 22 -37 19 -8 -3 -14 -1 -14 5 0 5 7 12 15 15 12 5 12 10 0 34 -11 20 -11 30 -3 41 9 11 9 13 -3 11 -19 -4 -79 33 -79 48 0 7 8 18 19 25 18 11 17 13 -10 36 -25 21 -29 31 -29 78 l0 55 33 -16 c30 -15 20 -3 -20 22 -17 11 -17 12 2 26 19 15 19 17 3 49 -23 47 -36 438 -13 438 7 0 16 -4 20 -9 9 -15 125 -90 143 -93 11 -2 17 3 16 15 0 9 -1 35 -2 57 -2 37 -22 60 -22 25 0 -12 -12 -7 -46 17 -26 18 -94 66 -153 107 -58 40 -158 111 -222 156 -64 46 -131 90 -150 98 -19 9 -70 38 -114 65 -44 28 -125 76 -180 107 -55 32 -163 95 -240 140 -204 119 -376 215 -386 215 -5 0 -10 -3 -10 -7z m51 -43 c12 -7 12 -10 1 -10 -7 0 -11 -6 -8 -15 4 -8 2 -17 -4 -20 -5 -4 -6 -12 -3 -18 5 -8 3 -8 -7 1 -16 15 -33 16 -23 0 4 -6 3 -8 -3 -5 -11 7 -10 48 2 66 8 14 25 14 45 1z m34 -48 c3 -5 -1 -9 -9 -9 -8 0 -12 4 -9 9 3 4 7 8 9 8 2 0 6 -4 9 -8z m62 -25 c1 -9 -2 -15 -7 -11 -5 3 -7 10 -4 15 9 13 -9 11 -25 -3 -12 -11 -12 -10 -1 5 16 21 33 18 37 -6z m-335 -17 c-8 -4 -21 -5 -30 -2 -12 5 -10 8 9 12 29 8 40 3 21 -10z m152 5 c-3 -9 -8 -14 -10 -11 -3 3 -2 9 2 15 9 16 15 13 8 -4z m105 -2 c-2 -10 -10 -17 -16 -15 -7 1 -12 -3 -12 -10 0 -6 -3 -9 -6 -6 -8 9 14 48 27 48 6 0 9 -8 7 -17z m122 2 c0 -8 -4 -15 -10 -15 -5 0 -7 7 -4 15 4 8 8 15 10 15 2 0 4 -7 4 -15z m-56 -30 c-4 -8 -11 -12 -17 -8 -8 5 -7 8 1 11 7 2 9 9 6 14 -4 7 -2 8 4 4 6 -4 9 -13 6 -21z m61 -28 c4 4 5 2 0 -6 -7 -12 -10 -11 -22 4 -8 13 -13 14 -13 5 0 -7 -3 -11 -6 -7 -4 3 -3 14 0 24 7 16 9 16 20 -5 7 -12 16 -19 21 -15z m75 15 c0 -4 -9 -13 -21 -20 -19 -12 -19 -11 -9 8 10 19 30 28 30 12z m50 -27 c10 -12 8 -21 -9 -47 -14 -23 -21 -27 -21 -15 0 9 -4 17 -8 17 -4 0 -8 8 -8 19 0 11 5 17 13 14 7 -3 13 -9 13 -15 0 -5 4 -7 10 -3 5 3 7 12 4 20 -4 8 -10 12 -15 9 -5 -3 -9 0 -9 5 0 16 16 13 30 -4z m44 -36 c-3 -5 -10 -7 -15 -3 -5 3 -7 10 -3 15 3 5 10 7 15 3 5 -3 7 -10 3 -15z m-24 -29 c0 -5 -5 -10 -11 -10 -5 0 -7 5 -4 10 3 6 8 10 11 10 2 0 4 -4 4 -10z m107 -45 c0 -8 -4 -12 -9 -9 -5 3 -6 10 -3 15 9 13 12 11 12 -6z m36 -38 c3 -8 0 -14 -7 -14 -7 0 -13 6 -13 14 0 7 4 13 8 13 4 0 9 -6 12 -13z m101 -2 c11 -8 16 -15 10 -15 -5 0 -2 -5 6 -10 11 -8 6 -9 -17 -5 -22 3 -33 1 -33 -7 0 -6 -2 -9 -5 -6 -7 7 5 58 14 58 3 0 15 -7 25 -15z m66 -44 c0 -5 -7 -11 -14 -14 -10 -4 -13 -1 -9 9 6 15 23 19 23 5z m-62 -19 c15 11 15 11 5 -3 -7 -9 -10 -19 -6 -22 3 -4 1 -7 -5 -7 -7 0 -12 5 -12 11 0 6 -7 9 -15 5 -8 -3 -15 -1 -15 3 0 13 24 20 28 9 2 -5 11 -3 20 4z m96 0 c6 -10 -19 -43 -27 -35 -12 12 -7 23 11 23 14 0 15 2 2 10 -9 6 -10 10 -3 10 6 0 14 -3 17 -8z m52 -27 c14 -11 15 -14 4 -15 -10 0 -11 -3 -3 -8 8 -5 8 -12 -3 -26 -12 -17 -14 -18 -14 -3 0 9 -4 17 -9 17 -4 0 -6 -12 -4 -27 4 -22 2 -25 -6 -13 -6 8 -11 28 -11 44 0 21 4 27 15 22 8 -3 15 -1 15 3 0 5 -6 12 -12 14 -7 3 -8 6 -2 6 5 1 19 -6 30 -14z m-306 -25 c0 -5 -8 -14 -17 -19 -10 -6 -14 -11 -9 -11 10 0 -45 -50 -56 -50 -3 0 -62 -35 -130 -77 -68 -42 -154 -94 -193 -116 -38 -22 -115 -72 -169 -111 -124 -88 -357 -247 -373 -253 -7 -3 -13 1 -13 8 0 13 33 39 285 221 55 40 114 85 130 100 17 16 39 31 50 34 11 4 31 15 45 24 63 44 281 180 335 209 33 18 64 37 70 42 12 12 45 12 45 -1z m380 -32 c0 -6 7 -8 15 -4 8 3 18 0 22 -7 5 -7 22 -17 38 -22 33 -12 43 -40 22 -67 -10 -13 -23 -16 -50 -11 -22 3 -34 10 -31 17 3 9 -9 12 -43 10 -47 -3 -48 -3 -50 27 -2 25 1 30 14 25 13 -5 14 -4 4 8 -9 10 -9 20 0 39 11 24 13 25 35 10 13 -8 24 -20 24 -25z m30 -128 c0 -5 -2 -10 -4 -10 -3 0 -8 5 -11 10 -3 6 -1 10 4 10 6 0 11 -4 11 -10z m34 2 c3 -5 -1 -9 -9 -9 -8 0 -15 4 -15 9 0 4 4 8 9 8 6 0 12 -4 15 -8z m-1424 -94 c-15 -17 -23 -19 -32 -10 -9 9 -6 14 13 21 37 15 41 13 19 -11z m715 12 c3 -6 -1 -7 -9 -4 -10 4 -16 1 -16 -7 0 -7 -3 -10 -6 -6 -7 7 4 27 16 27 5 0 12 -4 15 -10z m-690 -40 c3 -6 -1 -7 -9 -4 -18 7 -21 14 -7 14 6 0 13 -4 16 -10z m1475 6 c0 -2 -7 -7 -16 -10 -8 -3 -12 -2 -9 4 6 10 25 14 25 6z m-1536 -12 c14 -5 13 -10 -6 -38 -12 -17 -26 -33 -30 -34 -5 -2 -6 -8 -2 -13 8 -13 -10 -11 -24 3 -12 12 -4 34 26 69 19 22 16 21 36 13z m1492 -6 c4 -6 3 -8 -3 -5 -15 9 -23 -16 -12 -34 7 -11 9 -11 9 -1 0 7 5 10 11 7 13 -9 7 -16 -18 -20 -10 -1 -17 -8 -16 -13 2 -7 -4 -9 -14 -5 -12 5 -14 3 -8 -7 6 -9 4 -11 -4 -5 -9 5 -7 13 8 29 12 12 18 25 15 29 -4 4 -1 13 6 22 15 18 17 18 26 3z m-839 -30 c-3 -8 -6 -5 -6 6 -1 11 2 17 5 13 3 -3 4 -12 1 -19z m-617 -20 c0 -23 8 -23 34 -1 15 13 14 9 -4 -11 -16 -19 -19 -27 -9 -24 9 4 16 1 16 -5 0 -14 -46 -16 -66 -3 -10 6 -12 5 -7 -2 4 -7 3 -12 -3 -12 -19 0 -22 20 -7 48 17 32 46 39 46 10z m540 -14 c0 -8 -19 -13 -24 -6 -3 5 1 9 9 9 8 0 15 -2 15 -3z m1025 -5 c4 -6 0 -16 -9 -22 -8 -7 -17 -24 -20 -39 -4 -21 -1 -26 11 -21 10 4 14 2 10 -4 -3 -5 -7 -57 -8 -114 -1 -65 -6 -107 -13 -111 -8 -6 -7 -8 2 -8 6 0 12 -9 12 -19 0 -14 -28 -35 -96 -75 -52 -31 -99 -54 -104 -51 -4 3 -21 -2 -36 -10 -53 -27 -54 -25 -54 108 0 67 4 127 8 132 7 10 27 25 91 67 14 10 48 29 74 43 27 15 47 29 44 31 -3 3 -20 -2 -39 -12 -18 -10 -39 -19 -46 -20 -8 -1 -22 -10 -32 -19 -11 -10 -24 -14 -31 -9 -7 4 -10 3 -6 -3 4 -6 1 -13 -7 -16 -19 -8 -9 27 14 48 20 18 212 135 222 135 4 0 10 -5 13 -11z m-932 -367 c15 -15 26 -31 23 -38 -2 -6 4 -18 15 -28 17 -14 18 -19 5 -39 -8 -13 -14 -53 -16 -97 -1 -41 -3 -76 -5 -78 -1 -2 -20 5 -41 15 l-39 18 -3 118 c-1 64 0 117 3 117 4 0 15 -5 26 -10 10 -6 19 -9 19 -6 0 2 -25 18 -56 35 -38 21 -51 25 -40 12 14 -15 16 -35 12 -120 -2 -57 -6 -104 -8 -107 -3 -2 -26 10 -51 27 l-47 31 0 109 c0 108 0 110 21 99 11 -7 23 -9 26 -7 3 3 -10 13 -27 22 -26 13 -35 14 -44 4 -8 -9 -8 -10 1 -5 7 4 10 -1 9 -11 -6 -36 -20 -17 -23 31 l-4 48 108 -57 c59 -32 120 -69 136 -83z m947 -10 c0 -14 -29 -36 -110 -83 -41 -24 -84 -49 -95 -55 -59 -35 -107 -55 -113 -49 -4 4 0 11 8 16 197 120 295 177 303 178 4 1 7 -3 7 -7z m-230 -97 c0 -2 -10 -10 -22 -16 -21 -11 -22 -11 -9 4 13 16 31 23 31 12z m-50 -30 c0 -2 -10 -9 -22 -15 -22 -11 -22 -10 -4 4 21 17 26 19 26 11z m1082 -38 c17 -27 6 -34 -17 -11 -20 20 -28 23 -45 14 -12 -6 -20 -7 -20 -1 0 23 67 21 82 -2z m-1789 -92 c37 -21 67 -42 67 -47 0 -5 -15 -1 -32 10 -18 10 -70 41 -116 67 -46 27 -86 53 -89 58 -3 5 18 -4 48 -21 30 -16 84 -47 122 -67z m-833 81 c0 -2 -7 -7 -16 -10 -8 -3 -12 -2 -9 4 6 10 25 14 25 6z m60 -27 c0 -6 4 -8 9 -4 12 7 43 -24 36 -35 -3 -5 1 -11 7 -14 7 -3 0 -3 -15 -1 -25 4 -27 2 -15 -12 12 -15 11 -15 -9 -5 -12 7 -25 17 -28 22 -3 6 -11 10 -16 10 -6 0 -7 -5 -3 -12 4 -7 3 -8 -5 -4 -22 14 1 26 42 22 40 -5 41 -4 18 8 -14 8 -32 11 -40 8 -9 -3 -13 -2 -9 3 4 4 3 16 -3 27 -9 18 -8 18 10 8 12 -6 21 -15 21 -21z m603 5 c42 -22 268 -154 285 -167 7 -5 10 -12 8 -15 -7 -6 -320 169 -344 193 -12 11 21 4 51 -11z m1869 4 c-7 -7 -12 -21 -12 -31 0 -14 -5 -18 -20 -14 -11 3 -23 0 -27 -5 -3 -7 -1 -8 5 -4 17 10 15 -3 -3 -20 -13 -14 -15 -12 -15 15 0 26 4 31 24 31 16 0 27 7 31 20 3 11 11 20 18 20 8 0 8 -3 -1 -12z m-1112 -68 c0 -5 -2 -10 -4 -10 -3 0 -8 5 -11 10 -3 6 -1 10 4 10 6 0 11 -4 11 -10z m-30 -15 c0 -8 -9 -15 -20 -15 -13 0 -18 5 -14 15 4 8 12 15 20 15 8 0 14 -7 14 -15z m-1265 -5 c-3 -5 -12 -10 -18 -10 -7 0 -6 4 3 10 19 12 23 12 15 0z m-314 -33 c-7 -7 -14 -8 -21 -1 -6 6 -2 10 12 11 16 2 18 -1 9 -10z m2214 -27 c-4 -6 -7 -69 -7 -139 l1 -129 -42 -18 c-23 -11 -43 -19 -46 -19 -2 0 -6 18 -8 39 -1 22 -4 41 -6 42 -2 2 -35 -10 -73 -26 -38 -16 -63 -30 -56 -30 9 0 12 -44 12 -185 0 -113 4 -185 10 -185 5 0 16 14 25 30 17 33 36 38 55 15 15 -18 16 -17 -30 -40 -19 -10 -71 -39 -115 -65 -134 -79 -197 -112 -189 -99 5 9 2 10 -10 6 -11 -4 -15 -3 -11 4 4 6 13 8 20 5 31 -11 35 18 35 242 0 174 3 223 13 220 7 -3 14 -34 18 -84 3 -43 6 -73 7 -66 1 7 6 11 11 7 5 -3 13 0 17 6 4 8 3 9 -4 5 -9 -5 -12 10 -12 51 0 39 3 53 10 43 8 -12 14 -12 45 3 46 22 48 22 43 -8 -3 -14 -1 -25 3 -25 5 0 9 21 9 48 0 34 3 43 10 32 6 -9 10 -10 10 -3 0 6 3 19 7 29 5 13 3 15 -8 9 -8 -5 -7 -1 4 12 23 27 22 30 -17 29 -21 -1 -32 -5 -29 -13 6 -15 -53 -46 -69 -37 -7 4 -8 3 -4 -4 4 -7 2 -12 -4 -12 -15 0 -87 38 -95 49 -5 9 76 61 194 123 31 16 58 34 62 39 3 6 12 11 20 12 8 2 19 6 25 9 6 4 11 1 11 -7 0 -8 -3 -12 -7 -10 -4 2 -7 -2 -7 -10 0 -10 5 -11 19 -4 11 6 18 6 18 0 0 -5 -6 -12 -12 -15 -7 -3 -2 -3 11 0 17 5 21 3 16 -7 -6 -9 -4 -11 7 -6 9 3 21 0 28 -6 10 -9 11 -9 6 0 -3 6 -2 15 4 18 8 5 7 11 -1 21 -6 7 -14 12 -18 10 -4 -3 -13 0 -21 6 -12 8 -12 9 3 4 25 -8 34 22 11 38 -16 12 -14 14 24 21 23 4 40 11 37 16 -4 5 0 6 8 3 8 -3 18 -1 22 5 3 6 8 11 11 11 3 0 2 -5 -1 -10z m549 -34 c-18 -8 -36 -22 -42 -31 -7 -14 -11 -15 -17 -5 -11 18 30 50 64 50 26 -1 26 -1 -5 -14z m-778 -5 c-9 -13 -266 -163 -290 -168 -21 -4 -21 -4 -1 8 11 7 49 31 85 55 62 40 196 114 206 114 3 0 3 -4 0 -9z m-1839 -27 c-9 -9 -28 6 -21 18 4 6 10 6 17 -1 6 -6 8 -13 4 -17z m1852 12 c-15 -15 -110 -76 -119 -76 -5 0 -10 -4 -10 -8 0 -5 -12 -15 -27 -22 -16 -8 -46 -26 -68 -41 -22 -15 -51 -30 -65 -34 -35 -9 24 31 170 117 104 61 132 76 119 64z m-1618 -56 c13 -10 21 -22 17 -25 -11 -11 -91 38 -94 58 -2 16 0 16 25 1 15 -9 38 -24 52 -34z m-533 8 c-2 -25 -9 -33 -31 -39 -32 -9 -204 -110 -235 -139 -11 -10 -23 -16 -27 -12 -4 4 -5 2 -3 -4 3 -10 -66 -84 -78 -84 -2 0 -4 7 -4 16 0 9 5 12 13 8 10 -6 10 -4 0 7 -20 20 -16 63 7 77 12 7 44 25 73 41 29 15 102 58 162 94 61 37 114 67 118 67 5 0 7 -14 5 -32z m2286 -19 c-3 -5 -10 -7 -15 -3 -5 3 -7 10 -3 15 3 5 10 7 15 3 5 -3 7 -10 3 -15z m619 10 c-18 -5 -35 -14 -38 -19 -10 -17 -25 -11 -19 8 4 11 -1 8 -14 -8 -12 -14 -24 -21 -28 -17 -4 4 -3 7 3 7 6 0 13 8 15 18 4 14 16 18 59 19 48 1 51 0 22 -8z m134 -5 c-3 -3 -12 -4 -19 -1 -8 3 -5 6 6 6 11 1 17 -2 13 -5z m-289 -43 c-20 -18 -37 -26 -42 -21 -14 14 23 50 51 50 22 0 22 -1 -9 -29z m-2178 -31 c30 -15 40 -26 40 -45 l0 -24 -42 19 c-32 14 -44 25 -46 44 -4 31 -2 31 48 6z m1260 -54 c0 -2 -7 -7 -16 -10 -8 -3 -12 -2 -9 4 6 10 25 14 25 6z m-1944 -42 c19 -9 43 -14 54 -11 11 3 18 1 15 -4 -3 -4 9 -13 27 -18 31 -9 32 -9 6 -10 -15 -1 -30 4 -33 9 -15 25 -25 5 -25 -49 0 -56 -2 -62 -33 -85 -48 -37 -57 -33 -57 19 0 31 -4 45 -12 43 -23 -4 -58 13 -58 28 0 8 6 14 13 14 7 1 5 6 -6 14 -17 13 -15 16 25 40 51 31 42 30 84 10z m2489 -40 c-38 -35 -105 -68 -117 -56 -10 10 -2 18 63 55 26 14 49 23 53 20 3 -3 6 -1 6 6 0 7 5 9 10 6 7 -4 1 -16 -15 -31z m104 -7 c0 -21 -1 -21 -9 -2 -12 28 -12 37 0 30 6 -3 10 -16 9 -28z m-2109 -27 c0 -33 -4 -50 -12 -50 -18 0 -81 40 -75 47 13 12 73 52 80 53 4 0 7 -22 7 -50z m1432 14 c-3 -19 -7 -22 -13 -12 -13 20 -11 38 5 38 9 0 12 -8 8 -26z m-550 -43 l48 -26 0 -72 c0 -42 -4 -73 -10 -73 -5 0 -10 -20 -10 -45 0 -25 -2 -45 -5 -45 -2 0 -30 11 -61 25 -80 35 -81 30 -1 -11 80 -41 89 -53 15 -20 -57 25 -136 72 -103 61 16 -5 18 -4 8 6 -7 7 -14 40 -14 74 -2 56 -2 58 -9 20 -7 -37 -7 -35 -9 23 0 34 3 70 8 80 5 9 12 25 15 34 4 14 10 15 43 6 21 -5 59 -22 85 -37z m1311 34 c-3 -9 -8 -14 -10 -11 -3 3 -2 9 2 15 9 16 15 13 8 -4z m203 -13 c-8 -13 -46 -11 -46 1 0 5 7 7 15 3 8 -3 14 -2 14 2 -3 19 2 25 12 15 6 -6 8 -16 5 -21z m-1004 -94 c-2 -62 -7 -106 -11 -99 -6 9 -16 6 -39 -14 -21 -18 -32 -22 -35 -13 -3 7 -6 4 -6 -8 -1 -20 -43 -49 -55 -37 -3 4 -6 45 -6 93 l0 86 38 17 c21 9 53 32 72 52 19 19 36 35 39 35 4 0 5 -50 3 -112z m836 87 c-3 -3 -9 2 -12 12 -6 14 -5 15 5 6 7 -7 10 -15 7 -18z m-89 -35 c23 -12 28 -26 9 -28 -7 0 -23 -4 -35 -7 -17 -6 -23 -3 -23 8 0 9 5 19 10 22 6 3 8 18 5 33 -5 24 -4 25 4 5 6 -12 19 -27 30 -33z m-2311 9 c7 -11 19 -18 26 -16 7 3 19 1 27 -4 12 -8 12 -10 0 -18 -16 -10 -41 -4 -56 15 -13 15 -55 25 -55 13 0 -6 -6 -9 -12 -8 -26 3 -38 -1 -38 -15 0 -9 -7 -12 -20 -9 -23 6 -26 18 -7 27 6 4 2 4 -10 2 -13 -2 -23 0 -23 5 0 5 17 9 38 10 43 1 95 8 101 15 8 8 16 4 29 -17z m2483 -7 c-8 -15 -6 -19 7 -19 9 0 20 5 24 11 5 7 11 7 20 -3 11 -11 11 -13 -1 -6 -10 6 -12 4 -7 -4 5 -7 14 -10 22 -7 7 3 16 0 20 -6 4 -7 3 -8 -4 -4 -7 4 -12 3 -12 -3 0 -5 5 -13 10 -16 6 -3 10 -11 10 -16 0 -6 -5 -7 -12 -3 -6 4 -8 3 -5 -3 7 -11 -12 -76 -31 -111 -13 -23 -14 -23 -33 -6 -11 10 -19 12 -19 6 0 -7 -5 -12 -11 -12 -5 0 -8 4 -5 8 2 4 -4 8 -14 8 -10 0 -16 -5 -13 -11 3 -5 0 -4 -8 3 -19 17 -32 15 -25 -4 5 -14 4 -15 -8 -5 -8 7 -12 19 -9 27 3 8 -1 14 -10 14 -8 0 -18 7 -21 15 -4 12 -10 14 -25 5 -13 -7 -22 -7 -26 0 -3 5 -15 10 -26 10 -10 0 -19 4 -19 10 0 5 17 8 37 7 31 -2 37 2 43 22 4 18 17 27 50 37 25 8 50 12 57 9 14 -5 30 14 28 35 0 8 4 18 10 22 15 12 17 10 6 -10z m64 8 c3 -6 -1 -7 -9 -4 -18 7 -21 14 -7 14 6 0 13 -4 16 -10z m238 -5 c-3 -9 -8 -14 -10 -11 -3 3 -2 9 2 15 9 16 15 13 8 -4z m-3258 -34 c-3 -12 -14 -21 -24 -21 -31 0 -32 13 -4 31 31 21 37 19 28 -10z m539 -19 c3 -5 -1 -9 -9 -9 -8 0 -12 4 -9 9 3 4 7 8 9 8 2 0 6 -4 9 -8z m2731 -2 c3 -5 2 -10 -4 -10 -5 0 -13 5 -16 10 -3 6 -2 10 4 10 5 0 13 -4 16 -10z m-1535 -30 c0 -12 8 -20 22 -22 30 -4 37 -38 9 -45 -14 -3 -21 -15 -23 -37 -4 -40 -41 -45 -46 -6 -2 14 -11 33 -20 43 -15 17 -14 18 6 24 15 3 23 16 28 39 6 35 24 38 24 4z m-1206 -36 c5 -14 4 -15 -9 -4 -17 14 -19 20 -6 20 5 0 12 -7 15 -16z m-84 -4 c0 -5 -4 -10 -10 -10 -5 0 -10 5 -10 10 0 6 5 10 10 10 6 0 10 -4 10 -10z m2285 -16 c44 -18 42 -22 -10 -26 -23 -2 -40 -9 -43 -18 -5 -13 -3 -13 13 0 16 13 18 13 13 0 -2 -8 -15 -17 -29 -19 -13 -1 -28 -8 -32 -15 -5 -7 -7 -3 -4 9 2 11 9 19 15 18 7 -2 12 2 12 7 0 6 -7 10 -15 10 -8 0 -15 5 -15 11 0 6 9 9 19 6 13 -3 21 1 24 14 6 23 5 23 52 3z m-717 -63 c-3 -20 -5 -21 -23 -8 -17 13 -17 17 -6 31 17 21 34 7 29 -23z m1021 10 c8 -14 7 -20 -5 -25 -8 -3 -12 -2 -9 4 3 6 2 10 -3 10 -5 0 -14 -10 -20 -22 -6 -13 -11 -17 -11 -10 -1 12 27 62 35 62 2 0 8 -9 13 -19z m-909 -10 c0 -4 -28 -23 -62 -41 -35 -18 -89 -46 -121 -62 -32 -17 -60 -28 -63 -26 -5 6 71 58 109 75 16 7 42 24 59 38 28 24 78 34 78 16z m1173 -6 c4 -8 3 -16 -1 -19 -4 -3 -9 4 -9 15 -2 23 3 25 10 4z m-2558 -58 c11 -6 31 -16 45 -24 l25 -13 -34 -6 -34 -7 23 -19 c22 -18 22 -19 4 -33 -18 -14 -17 -14 7 -4 20 8 32 8 50 -1 20 -11 21 -14 6 -25 -13 -9 -14 -14 -4 -25 7 -7 -6 -3 -28 10 -22 13 -59 34 -82 47 -24 14 -43 26 -43 29 0 2 12 10 28 19 26 15 26 16 2 9 -14 -3 -29 -10 -34 -15 -11 -10 -89 29 -81 41 3 5 0 7 -7 5 -8 -3 -22 1 -32 8 -18 13 -16 15 25 38 l44 24 50 -24 c27 -13 59 -29 70 -34z m2229 46 c4 -10 1 -22 -7 -28 -7 -5 -12 -17 -10 -25 3 -11 1 -11 -6 2 -9 13 -15 14 -35 5 -15 -7 -21 -16 -16 -22 6 -7 0 -11 -15 -13 -13 -1 -27 3 -31 9 -4 8 1 9 16 4 15 -5 20 -4 16 4 -4 6 0 14 9 17 9 4 14 13 11 20 -6 17 -1 17 27 3 18 -9 20 -9 10 2 -19 19 -16 34 4 18 15 -12 16 -12 10 4 -3 9 -2 17 2 17 5 0 12 -8 15 -17z m121 -13 c14 -15 15 -20 4 -20 -8 0 -20 9 -27 20 -7 11 -8 20 -4 20 5 0 17 -9 27 -20z m-1634 -22 c44 -18 48 -23 36 -35 -13 -13 -18 -13 -43 0 -16 8 -40 25 -53 36 -33 29 -7 28 60 -1z m1131 -40 c142 -84 265 -150 285 -151 12 -1 19 -4 17 -6 -2 -2 1 -10 6 -16 8 -10 -14 -27 -87 -70 -140 -83 -182 -107 -234 -134 l-45 -23 -69 35 c-119 59 -124 62 -115 76 6 10 9 10 15 1 4 -6 14 -9 22 -6 8 3 12 2 9 -3 -3 -5 1 -12 10 -15 8 -3 13 -2 10 3 -3 5 6 9 19 10 57 4 65 6 65 12 0 11 61 30 73 22 5 -3 7 -1 4 4 -11 18 20 36 49 29 21 -6 24 -9 14 -21 -7 -8 -20 -15 -30 -15 -9 0 -17 -6 -17 -14 0 -8 6 -12 15 -8 11 4 13 1 7 -8 -5 -8 -4 -11 3 -6 6 3 13 2 16 -3 3 -5 -1 -12 -10 -15 -25 -10 -52 -7 -61 7 -11 17 -43 18 -36 1 7 -19 -43 -30 -62 -14 -13 11 -14 10 -10 -1 3 -8 21 -22 40 -31 27 -14 41 -15 62 -7 31 11 193 108 193 115 0 9 -26 -2 -38 -16 -8 -8 -11 -9 -7 -2 3 6 -1 15 -9 18 -9 3 -13 11 -9 17 3 6 1 7 -6 3 -18 -12 -53 4 -47 20 3 8 2 13 -2 10 -4 -2 -18 2 -31 9 l-24 13 21 11 c17 9 28 8 53 -4 17 -9 33 -14 36 -11 3 3 -6 11 -21 17 -31 14 -33 25 -7 34 24 7 53 -4 48 -19 -3 -8 5 -11 24 -8 16 2 35 0 42 -5 6 -6 25 -13 40 -17 16 -4 25 -11 21 -17 -3 -6 3 -5 15 3 24 15 28 30 6 22 -8 -3 -17 0 -20 8 -4 10 -16 13 -35 10 -18 -3 -30 0 -30 7 0 6 6 11 13 11 14 0 -41 36 -161 104 -52 29 -90 45 -101 41 -11 -3 -54 -27 -97 -53 -117 -71 -180 -106 -169 -94 8 8 276 172 282 172 1 0 26 -14 55 -32z m-1742 -27 c2 -1 -1 -6 -7 -12 -14 -14 -67 -3 -58 12 5 8 20 8 65 0z m1705 -30 c7 -13 -32 -34 -47 -25 -7 4 -2 12 13 20 29 16 27 16 34 5z m-1681 -12 c-4 -7 -44 0 -44 7 0 2 11 3 24 2 14 -1 23 -5 20 -9z m66 -13 c0 -20 -11 -25 -35 -15 -19 7 -19 8 3 8 13 1 20 5 17 11 -3 6 -1 10 4 10 6 0 11 -6 11 -14z m1663 -2 c7 -8 -17 -34 -32 -34 -5 0 -13 5 -17 11 -11 18 33 39 49 23z m-115 -13 c11 -7 11 -9 -2 -14 -9 -4 -23 -4 -32 0 -13 5 -13 7 -2 14 7 5 15 9 18 9 3 0 11 -4 18 -9z m-1531 -16 c0 -8 -4 -12 -9 -9 -5 3 -6 10 -3 15 9 13 12 11 12 -6z m1693 -5 c0 -15 -26 -23 -41 -14 -9 5 -7 10 7 15 27 11 34 10 34 -1z m-2540 -4 c0 -3 -7 -12 -16 -20 -8 -9 -11 -16 -5 -16 5 0 13 5 16 10 3 6 11 10 17 10 7 0 6 -5 -1 -14 -8 -9 -8 -16 -2 -20 5 -4 14 1 19 9 8 15 10 14 23 -1 8 -10 9 -15 2 -11 -6 4 -15 3 -18 -3 -4 -6 -15 -8 -26 -5 -11 4 -19 2 -19 -4 0 -6 -6 -11 -13 -11 -18 0 -15 59 4 71 16 10 19 11 19 5z m2424 -4 c2 -4 -7 -9 -22 -10 -21 -1 -24 0 -12 8 18 12 27 12 34 2z m-108 -17 c-11 -8 -24 -15 -28 -15 -5 0 -18 -9 -30 -20 -24 -22 -38 -26 -38 -9 0 5 -5 7 -11 3 -7 -4 -10 -1 -7 7 2 8 18 15 36 17 17 2 36 10 42 18 7 8 22 14 34 14 21 -1 21 -1 2 -15z m-1469 -12 c2 -5 -3 -16 -12 -23 -9 -7 -15 -9 -14 -4 3 20 -2 34 -12 34 -6 0 -9 -7 -6 -14 4 -10 1 -13 -9 -9 -15 6 -18 16 -7 26 10 10 56 2 60 -10z m-167 -24 c0 -5 -4 -9 -10 -9 -5 0 -10 7 -10 16 0 8 5 12 10 9 6 -3 10 -10 10 -16z m2376 -26 c-2 -2 -16 2 -32 8 -16 7 -33 11 -37 10 -5 -1 -6 3 -3 8 3 5 21 2 41 -7 19 -9 33 -17 31 -19z m19 27 c-3 -5 -12 -10 -18 -10 -7 0 -6 4 3 10 19 12 23 12 15 0z m-2995 -5 c0 -2 -10 -9 -22 -15 -22 -11 -22 -10 -4 4 21 17 26 19 26 11z m2070 -16 c29 9 45 9 60 1 18 -10 19 -13 5 -26 -8 -9 -15 -21 -14 -27 0 -8 2 -8 6 1 2 7 14 17 25 23 19 10 19 10 1 -17 -10 -16 -12 -25 -5 -21 18 12 15 -2 -15 -52 -14 -25 -28 -40 -31 -33 -2 6 -8 12 -13 12 -6 0 -7 -4 -4 -10 10 -16 -11 -12 -25 5 -7 8 -9 15 -4 15 5 0 9 13 9 29 0 24 -3 27 -17 20 -11 -6 -18 -4 -23 9 -5 14 -9 11 -22 -16 -8 -17 -20 -32 -25 -32 -5 0 -4 9 2 21 13 23 6 54 -10 44 -8 -5 -7 -11 1 -21 8 -10 8 -14 0 -14 -6 0 -11 -8 -12 -17 0 -10 -3 -13 -5 -6 -3 7 -12 9 -20 6 -8 -3 -14 -1 -14 5 0 6 -3 17 -6 25 -3 8 2 17 13 20 10 4 33 15 52 26 28 16 31 22 18 27 -9 3 -17 10 -17 15 0 5 11 2 25 -7 22 -14 32 -15 65 -5z m150 11 c0 -5 -4 -10 -9 -10 -5 0 -18 -3 -28 -6 -16 -6 -16 -5 2 9 23 19 35 21 35 7z m-2115 -48 c-3 -3 -11 0 -18 7 -9 10 -8 11 6 5 10 -3 15 -9 12 -12z m2675 -7 c46 -29 51 -56 18 -80 -38 -27 -209 -124 -274 -156 -43 -21 -70 -28 -88 -23 -27 6 -76 47 -76 63 0 5 54 39 120 76 67 36 149 84 183 105 34 22 65 40 70 40 4 0 25 -11 47 -25z m228 0 c-3 -3 -9 2 -12 12 -6 14 -5 15 5 6 7 -7 10 -15 7 -18z m-523 -15 c-3 -5 -1 -10 4 -10 22 0 10 -20 -15 -26 -37 -9 -51 10 -23 30 26 18 43 21 34 6z m-2398 -16 c-3 -3 -12 -4 -19 -1 -8 3 -5 6 6 6 11 1 17 -2 13 -5z m1817 -38 c-5 -12 -10 -14 -20 -5 -10 8 -11 14 -1 24 15 17 30 4 21 -19z m-1259 -16 c-10 -11 -22 -17 -27 -14 -5 4 1 12 14 19 32 18 34 18 13 -5z m1223 -9 c3 -8 -1 -12 -9 -9 -7 2 -15 10 -17 17 -3 8 1 12 9 9 7 -2 15 -10 17 -17z m162 -11 c0 -13 -5 -18 -15 -14 -11 5 -12 9 -2 20 16 18 17 17 17 -6z m360 11 c2 -1 -1 -6 -7 -12 -7 -7 -23 -9 -39 -5 -22 6 -25 9 -14 16 8 5 24 7 35 5 11 -2 22 -4 25 -4z m-480 -28 c0 -13 -3 -13 -15 -3 -8 7 -15 16 -15 21 0 5 7 6 15 3 8 -4 15 -13 15 -21z m321 0 c13 -16 12 -17 -3 -4 -17 13 -22 21 -14 21 2 0 10 -8 17 -17z m-344 -19 c-1 -2 -13 -1 -26 3 -16 4 -19 8 -10 14 12 7 45 -9 36 -17z m178 16 c3 -6 -1 -7 -9 -4 -18 7 -21 14 -7 14 6 0 13 -4 16 -10z m785 5 c0 -2 -10 -9 -22 -15 -22 -11 -22 -10 -4 4 21 17 26 19 26 11z m-835 -26 c0 -9 -8 -13 -25 -11 -28 4 -36 9 -28 18 4 3 16 1 27 -6 12 -6 21 -7 21 -1 0 5 -5 12 -10 14 -6 3 -5 4 2 3 7 -2 13 -9 13 -17z m-181 -11 c-3 -4 -9 -8 -15 -8 -5 0 -9 4 -9 8 0 5 7 9 15 9 8 0 12 -4 9 -9z m476 -2 c0 -2 -7 -7 -16 -10 -8 -3 -12 -2 -9 4 6 10 25 14 25 6z m-55 -16 c3 -6 -1 -7 -9 -4 -18 7 -21 14 -7 14 6 0 13 -4 16 -10z m-531 -16 c4 -9 4 -19 1 -22 -3 -3 -5 0 -5 7 0 8 -7 11 -15 7 -15 -5 -20 5 -8 17 11 11 21 8 27 -9z m641 -114 c-3 -5 -12 -10 -18 -10 -7 0 -6 4 3 10 19 12 23 12 15 0z m5 -25 c-9 -11 -9 -15 -1 -15 7 0 9 -4 6 -10 -3 -5 -14 -10 -23 -10 -15 0 -15 2 -2 10 8 5 11 10 6 10 -9 0 12 30 21 30 3 0 0 -7 -7 -15z m-95 -25 c3 -6 -1 -7 -9 -4 -18 7 -21 14 -7 14 6 0 13 -4 16 -10z m-130 -70 c3 -6 -1 -7 -9 -4 -18 7 -21 14 -7 14 6 0 13 -4 16 -10z m92 -46 c-3 -3 -12 -4 -19 -1 -8 3 -5 6 6 6 11 1 17 -2 13 -5z m-157 -69 c0 -2 -10 -9 -22 -15 -22 -11 -22 -10 -4 4 21 17 26 19 26 11z m-219 -32 c13 -16 12 -17 -3 -4 -10 7 -18 15 -18 17 0 8 8 3 21 -13z m134 -43 c-3 -5 -12 -10 -18 -10 -7 0 -6 4 3 10 19 12 23 12 15 0z m-680 -180 c3 -6 -1 -7 -9 -4 -18 7 -21 14 -7 14 6 0 13 -4 16 -10z"></path><path d="M3038 3663 c-21 -5 -24 -23 -4 -23 8 0 16 7 20 15 3 8 4 14 3 14 -1 -1 -10 -3 -19 -6z"></path><path d="M3112 3621 c-11 -7 -11 -9 0 -14 9 -3 15 1 15 9 0 8 -1 14 -1 14 -1 0 -7 -4 -14 -9z"></path><path d="M3041 2958 c-1 -53 6 -58 40 -27 13 11 18 18 12 14 -7 -3 -13 -1 -13 5 0 7 -6 10 -14 7 -10 -4 -16 3 -19 21 -2 16 -5 8 -6 -20z"></path><path d="M3267 2482 c-10 -10 -17 -23 -17 -28 0 -5 5 -2 10 6 9 13 11 13 19 1 7 -10 9 -7 8 12 -1 15 -2 27 -3 27 0 0 -8 -8 -17 -18z"></path><path d="M3210 2444 c0 -8 -4 -12 -10 -9 -6 3 -7 -1 -4 -9 7 -18 20 -13 34 15 9 15 7 19 -5 19 -8 0 -15 -7 -15 -16z"></path><path d="M3192 2270 c0 -14 2 -19 5 -12 2 6 2 18 0 25 -3 6 -5 1 -5 -13z"></path><path d="M3050 2024 c0 -54 4 -83 10 -79 6 3 10 42 10 86 0 46 -4 79 -10 79 -6 0 -10 -35 -10 -86z"></path><path d="M2202 2210 c0 -14 2 -19 5 -12 2 6 2 18 0 25 -3 6 -5 1 -5 -13z"></path><path d="M1476 1961 c-15 -6 -16 -9 -5 -13 8 -3 20 1 27 8 14 15 7 17 -22 5z"></path><path d="M3524 1725 c22 -17 40 -20 32 -6 -3 5 -16 11 -28 14 -22 6 -22 5 -4 -8z"></path><path d="M3040 1679 c0 -5 5 -7 10 -4 6 3 10 8 10 11 0 2 -4 4 -10 4 -5 0 -10 -5 -10 -11z"></path><path d="M3074 1628 c-3 -5 1 -8 10 -8 8 0 16 -6 18 -12 3 -8 9 -4 17 9 11 21 10 23 -14 21 -15 -2 -29 -6 -31 -10z"></path><path d="M3921 4066 c-35 -19 -50 -54 -51 -112 0 -119 80 -231 173 -242 27 -3 87 30 87 48 0 5 10 30 21 57 19 42 22 46 30 28 7 -14 8 -5 4 29 -5 52 -44 130 -70 140 -8 3 -15 0 -15 -6 0 -7 -15 3 -33 20 -29 28 -82 53 -112 52 -5 -1 -21 -7 -34 -14z m60 -103 c3 -17 2 -37 -2 -45 -14 -22 -10 -53 10 -75 11 -12 18 -24 15 -27 -2 -3 1 -2 8 4 9 7 6 16 -12 35 -21 22 -22 28 -10 49 7 14 10 34 7 45 -5 21 24 42 31 22 2 -6 8 -9 13 -6 5 4 6 -2 2 -11 -4 -12 -3 -15 5 -10 15 9 32 -33 32 -80 0 -25 -4 -34 -16 -34 -10 0 -14 -6 -10 -15 3 -10 -3 -17 -21 -21 -33 -9 -72 14 -97 56 -16 27 -17 37 -8 68 8 24 8 40 1 48 -7 9 -5 15 8 23 26 15 37 9 44 -26z"></path><path d="M4047 3916 c-4 -10 -3 -15 3 -11 6 3 11 -4 11 -17 1 -16 3 -18 6 -6 2 10 0 25 -5 34 -8 15 -10 15 -15 0z"></path><path d="M4036 3855 c4 -8 10 -15 15 -15 4 0 6 7 3 15 -4 8 -10 15 -15 15 -4 0 -6 -7 -3 -15z"></path><path d="M1315 4049 c-4 -6 -5 -12 -2 -15 2 -3 7 2 10 11 7 17 1 20 -8 4z"></path><path d="M1485 4048 c-32 -18 -62 -57 -74 -98 -12 -41 -15 -160 -4 -160 4 0 31 14 60 32 l53 32 0 103 c0 57 -3 103 -7 103 -5 0 -17 -6 -28 -12z"></path><path d="M3402 3992 c-49 -46 -69 -157 -34 -187 66 -59 82 -67 117 -61 62 12 77 59 52 161 -15 62 -24 75 -64 98 -39 22 -35 22 -71 -11z m62 -5 c14 -11 17 -24 15 -64 -3 -32 1 -55 9 -62 15 -15 16 -53 1 -68 -15 -15 -63 8 -79 36 -14 28 -13 68 3 74 9 3 12 16 9 36 -5 33 2 61 16 61 4 0 16 -6 26 -13z"></path><path d="M3414 3866 c-11 -28 48 -78 67 -59 13 13 2 40 -19 48 -14 5 -15 4 -4 -6 19 -20 14 -31 -9 -19 -11 7 -18 18 -15 25 3 8 1 17 -5 20 -5 4 -12 -1 -15 -9z"></path><path d="M1360 3989 c-8 -11 -23 -30 -32 -41 -14 -16 -18 -40 -18 -105 l0 -83 35 0 35 0 0 125 c0 69 -1 125 -3 125 -1 0 -9 -9 -17 -21z"></path><path d="M4184 3587 c-7 -19 4 -40 17 -31 5 3 7 10 4 15 -11 17 37 9 72 -12 18 -12 45 -37 58 -57 14 -20 25 -31 25 -24 0 6 -16 30 -35 51 -22 24 -32 42 -25 46 12 8 4 25 -13 25 -7 0 -6 -4 3 -11 12 -8 9 -9 -10 -4 -60 17 -90 17 -96 2z"></path><path d="M4280 3466 c0 -19 -4 -37 -10 -41 -5 -3 -7 -12 -3 -20 11 -30 20 -14 22 40 1 30 -1 55 -4 55 -3 0 -5 -15 -5 -34z"></path><path d="M3780 3452 c0 -4 15 -12 33 -17 56 -17 68 -57 65 -215 -3 -132 -4 -135 -25 -134 -12 0 -20 -3 -17 -8 3 -4 16 -8 28 -8 37 0 69 83 74 193 4 76 2 86 -12 81 -11 -4 -21 4 -33 27 -24 45 -71 89 -94 89 -10 0 -19 -4 -19 -8z"></path><path d="M4182 3400 c0 -19 2 -27 5 -17 2 9 2 25 0 35 -3 9 -5 1 -5 -18z"></path><path d="M4331 3296 c-1 -68 -3 -77 -16 -66 -8 7 -15 19 -15 27 0 11 -4 11 -20 3 -16 -8 -20 -8 -18 2 2 7 6 15 9 18 4 3 1 10 -5 16 -10 9 -15 5 -24 -18 -10 -26 -8 -30 13 -40 14 -6 22 -15 18 -21 -3 -6 -1 -7 5 -3 7 4 22 0 34 -8 12 -9 26 -16 30 -16 10 0 9 81 -1 140 -8 41 -9 38 -10 -34z"></path><path d="M3780 3221 c-5 -11 -10 -33 -10 -48 0 -24 7 -33 45 -51 l45 -22 0 31 c0 45 -36 108 -62 109 -4 0 -12 -9 -18 -19z"></path><path d="M1380 3141 c0 -8 52 -31 69 -31 9 0 -53 40 -61 40 -5 0 -8 -4 -8 -9z"></path><path d="M4292 2874 c-2 -48 2 -65 16 -75 15 -12 16 -12 5 1 -7 9 -14 43 -16 75 l-3 60 -2 -61z"></path><path d="M4165 2810 c-3 -5 3 -10 15 -10 12 0 18 5 15 10 -3 6 -10 10 -15 10 -5 0 -12 -4 -15 -10z"></path><path d="M4370 2766 c0 -3 9 -10 20 -16 11 -6 20 -8 20 -6 0 3 -9 10 -20 16 -11 6 -20 8 -20 6z"></path><path d="M4420 2737 c0 -7 72 -48 76 -44 2 2 -14 14 -36 26 -22 12 -40 20 -40 18z"></path><path d="M4140 2631 c0 -10 8 -21 18 -23 11 -3 19 0 19 8 0 8 -7 14 -14 14 -8 0 -11 5 -8 10 3 6 1 10 -4 10 -6 0 -11 -8 -11 -19z"></path><path d="M3640 2600 c0 -5 5 -10 11 -10 5 0 7 5 4 10 -3 6 -8 10 -11 10 -2 0 -4 -4 -4 -10z"></path><path d="M4196 2587 c3 -10 9 -15 12 -12 3 3 0 11 -7 18 -10 9 -11 8 -5 -6z"></path><path d="M4600 2581 c0 -6 4 -13 10 -16 6 -3 7 1 4 9 -7 18 -14 21 -14 7z"></path><path d="M4695 2110 c0 -224 3 -406 8 -403 4 2 7 184 7 403 0 219 -3 401 -7 403 -5 3 -8 -179 -8 -403z"></path><path d="M4167 2269 c7 -7 15 -10 18 -7 3 3 -2 9 -12 12 -14 6 -15 5 -6 -5z"></path><path d="M4160 2243 c0 -4 5 -15 10 -23 8 -13 10 -13 10 2 0 9 -4 20 -10 23 -5 3 -10 3 -10 -2z"></path><path d="M273 2005 c0 -27 2 -38 4 -22 2 15 2 37 0 50 -2 12 -4 0 -4 -28z"></path><path d="M1395 1828 c-33 -18 -75 -61 -75 -77 0 -11 5 -10 23 6 12 12 41 31 65 43 32 17 40 25 30 31 -16 11 -19 11 -43 -3z"></path><path d="M4070 1810 c6 -11 12 -20 14 -20 2 0 2 9 -1 20 -3 11 -9 20 -15 20 -5 0 -4 -9 2 -20z"></path><path d="M1404 1789 c-48 -25 -75 -59 -46 -59 10 0 33 11 52 25 50 37 60 30 14 -9 -46 -40 -40 -59 8 -25 l33 23 -22 -25 c-33 -37 -29 -59 5 -27 15 14 44 37 66 51 37 24 37 26 17 37 -12 6 -32 8 -44 5 -17 -5 -19 -4 -7 4 9 6 10 11 3 11 -6 0 -17 2 -25 5 -7 3 -31 -5 -54 -16z"></path><path d="M273 1750 c0 -25 2 -35 4 -22 2 12 2 32 0 45 -2 12 -4 2 -4 -23z"></path><path d="M4495 1720 c-3 -5 -2 -18 3 -27 6 -10 6 -26 1 -41 -5 -14 -14 -43 -19 -66 l-9 -41 19 23 c11 13 22 40 25 60 3 20 10 44 14 52 5 10 4 23 -4 33 -14 19 -21 21 -30 7z"></path><path d="M454 1695 c-9 -36 13 -107 48 -155 32 -43 163 -136 282 -200 117 -62 136 -75 132 -85 -2 -5 -10 -9 -19 -9 -9 1 -15 -3 -14 -8 1 -6 -17 -21 -40 -33 -37 -20 -40 -25 -27 -36 13 -10 22 -10 47 0 18 7 39 14 47 15 18 4 40 -17 40 -38 0 -22 -20 -20 -21 2 0 12 -2 13 -6 3 -3 -8 1 -19 10 -26 10 -7 17 -30 18 -64 4 -90 19 -67 19 30 0 72 -4 96 -17 111 -11 13 -13 22 -6 29 7 7 30 -1 74 -28 69 -42 130 -71 114 -54 -12 12 -150 92 -290 169 -125 69 -148 88 -134 114 8 14 6 32 -7 69 -16 44 -25 53 -69 75 -68 34 -106 65 -136 108 -29 43 -36 44 -45 11z"></path><path d="M1291 1697 c-15 -39 -13 -98 4 -121 8 -10 12 -23 8 -29 -3 -6 -1 -7 5 -4 5 4 8 17 5 30 -3 15 -2 18 5 9 6 -10 12 -1 21 31 13 45 12 81 -1 75 -4 -2 -14 6 -22 17 -14 20 -15 19 -25 -8z m39 -21 c0 -2 -8 -10 -17 -17 -16 -13 -17 -12 -4 4 13 16 21 21 21 13z"></path><path d="M1365 1660 c-14 -22 -18 -120 -6 -120 7 0 9 -4 6 -10 -3 -5 -4 -10 -1 -10 3 0 12 12 20 28 l15 27 2 -30 c1 -16 2 -42 3 -57 1 -31 15 -39 17 -10 1 9 1 20 0 25 0 4 6 7 14 7 13 0 35 55 35 90 0 18 -56 54 -70 45 -6 -3 -10 -13 -10 -21 0 -8 -5 -12 -10 -9 -7 4 -7 12 0 25 11 20 -3 39 -15 20z m49 -54 c-3 -15 -8 -25 -11 -23 -2 3 -1 17 3 31 3 15 8 25 11 23 2 -3 1 -17 -3 -31z"></path><path d="M1002 1621 c-11 -7 -10 -9 3 -14 9 -4 14 -3 10 2 -3 5 1 12 7 14 7 3 9 6 3 6 -5 0 -16 -3 -23 -8z"></path><path d="M1136 1594 c-4 -9 -4 -19 -1 -22 3 -3 5 0 5 7 0 7 4 9 10 6 6 -3 7 1 4 9 -8 20 -10 20 -18 0z"></path><path d="M1481 1569 c-15 -44 -15 -163 1 -153 8 5 9 2 5 -9 -8 -20 4 -22 22 -4 10 10 11 8 5 -8 -5 -14 -4 -17 4 -10 6 6 20 46 31 90 20 75 20 81 4 93 -9 6 -20 12 -25 12 -10 0 -11 -17 0 -23 4 -2 2 -2 -5 -1 -6 2 -16 -9 -22 -24 -5 -15 -10 -22 -10 -15 -1 6 4 24 9 39 7 16 7 31 2 36 -6 6 -14 -3 -21 -23z"></path><path d="M1281 1564 c0 -11 3 -14 6 -6 3 7 2 16 -1 19 -3 4 -6 -2 -5 -13z"></path><path d="M1575 1532 c-13 -33 -18 -179 -6 -186 7 -5 11 3 12 21 0 15 4 37 9 48 8 17 9 16 11 -10 1 -16 3 -37 4 -45 1 -8 3 -24 4 -35 2 -17 51 155 51 177 0 4 -18 17 -39 28 -36 18 -40 18 -46 2z"></path><path d="M4377 1471 c-41 -26 -46 -36 -10 -17 17 9 35 20 38 26 8 13 6 12 -28 -9z"></path><path d="M4304 1424 c-18 -14 -18 -15 4 -4 12 6 22 13 22 15 0 8 -5 6 -26 -11z"></path><path d="M4507 1231 c-76 -48 -112 -74 -72 -53 45 23 168 102 160 102 -6 0 -45 -22 -88 -49z"></path><path d="M4015 1260 c-3 -6 1 -7 9 -4 18 7 21 14 7 14 -6 0 -13 -4 -16 -10z"></path><path d="M480 1226 c0 -7 133 -86 146 -86 5 0 -4 8 -21 18 -82 50 -125 73 -125 68z"></path><path d="M4380 1155 c-14 -8 -20 -14 -14 -15 5 0 19 7 30 15 24 18 16 19 -16 0z"></path><path d="M870 1144 c0 -8 5 -12 10 -9 6 4 8 11 5 16 -9 14 -15 11 -15 -7z"></path><path d="M4121 1140 c-23 -11 -47 -18 -51 -15 -4 3 -10 -2 -14 -10 -3 -8 -12 -12 -20 -9 -8 3 -17 0 -22 -7 -5 -8 -3 -10 6 -4 9 6 11 4 6 -4 -5 -7 -14 -10 -21 -8 -7 3 -25 -2 -40 -12 -25 -14 -29 -23 -31 -71 -1 -30 -8 -74 -15 -97 -6 -24 -9 -68 -7 -98 l5 -55 -63 -37 c-35 -20 -61 -39 -59 -41 3 -3 22 6 42 19 80 52 85 52 167 11 l75 -38 73 38 c51 26 75 44 78 60 4 15 36 42 95 80 l90 56 -3 69 c-2 71 -1 69 -64 115 -20 14 -21 19 -11 37 11 17 10 19 -1 15 -8 -3 -28 2 -45 10 -41 22 -117 20 -170 -4z m263 -112 c9 -12 14 -24 12 -26 -5 -4 -46 35 -46 43 0 13 20 3 34 -17z m-134 -123 c0 -2 -10 -9 -22 -15 -22 -11 -22 -10 -4 4 21 17 26 19 26 11z m-105 -35 c-3 -5 -12 -10 -18 -10 -7 0 -6 4 3 10 19 12 23 12 15 0z m25 -15 c0 -2 -13 -11 -30 -20 -38 -19 -40 -11 -2 9 31 17 32 18 32 11z m129 -4 c7 -2 -44 -38 -78 -55 -24 -13 -36 -15 -44 -7 -13 13 -13 13 42 44 24 14 51 23 60 22 9 -2 18 -4 20 -4z m-338 -57 c10 -12 2 -24 -18 -24 -14 0 -17 28 -6 57 7 17 8 17 11 -2 2 -11 8 -25 13 -31z m124 26 c3 -5 2 -10 -4 -10 -5 0 -13 5 -16 10 -3 6 -2 10 4 10 5 0 13 -4 16 -10z m-70 -61 c4 -6 19 -7 36 -4 26 6 29 4 29 -19 0 -26 0 -26 -34 -12 -19 8 -44 12 -54 9 -11 -2 -23 0 -26 6 -4 6 -2 11 4 11 6 0 8 5 5 10 -3 6 3 10 14 10 11 0 23 -5 26 -11z m155 -10 c0 -6 -4 -7 -10 -4 -5 3 -10 11 -10 16 0 6 5 7 10 4 6 -3 10 -11 10 -16z m-36 -8 c17 -19 17 -20 -3 -30 -29 -16 -31 -14 -31 19 0 35 10 38 34 11z m-55 -47 c14 -12 -19 -1 -35 12 -18 14 -18 14 6 3 14 -6 27 -13 29 -15z"></path><path d="M690 1127 c-51 -24 -128 -88 -134 -112 -3 -13 -2 -35 4 -49 10 -28 2 -34 -18 -14 -7 7 -12 8 -12 2 0 -6 39 -32 88 -59 48 -26 114 -66 146 -87 113 -75 151 -85 174 -47 12 19 15 20 31 5 10 -9 23 -16 30 -16 7 0 11 -6 8 -14 -5 -11 1 -13 26 -10 25 4 46 -3 91 -31 32 -19 61 -33 63 -31 3 2 -26 21 -63 42 -61 34 -65 38 -48 51 20 14 7 18 -15 4 -19 -12 -43 -2 -37 15 4 10 -3 14 -19 14 -28 0 -33 21 -10 40 9 8 12 22 8 41 -5 25 -3 28 11 23 10 -4 15 -12 12 -19 -3 -8 2 -11 15 -8 25 7 24 10 -11 28 -18 10 -30 23 -30 36 0 11 -5 29 -11 40 -10 19 -11 19 -45 -10 -50 -44 -74 -47 -138 -18 -36 17 -53 21 -50 12 3 -7 13 -16 22 -20 13 -5 14 -8 4 -14 -9 -5 9 -21 57 -50 79 -47 98 -67 24 -25 -167 94 -205 119 -222 142 -22 33 -18 60 6 40 14 -11 15 -10 9 8 -10 33 13 71 53 88 20 8 29 15 21 15 -8 0 -26 -6 -40 -12z"></path><path d="M1150 1136 c0 -2 7 -7 16 -10 8 -3 12 -2 9 4 -6 10 -25 14 -25 6z"></path><path d="M783 1105 c0 -8 6 -15 14 -15 14 0 14 -1 18 -37 3 -31 32 -73 51 -73 20 0 74 28 74 39 0 5 -21 21 -47 36 -27 15 -62 36 -79 46 -25 15 -31 16 -31 4z"></path><path d="M1190 1116 c0 -3 9 -10 20 -16 11 -6 20 -8 20 -6 0 3 -9 10 -20 16 -11 6 -20 8 -20 6z"></path><path d="M700 1093 c-26 -19 -23 -57 5 -61 26 -4 54 17 59 44 6 28 -34 38 -64 17z"></path><path d="M1030 1101 c0 -5 5 -13 10 -16 6 -3 10 -2 10 4 0 5 -4 13 -10 16 -5 3 -10 2 -10 -4z"></path><path d="M802 978 c5 -15 28 -18 29 -3 0 6 -7 12 -17 13 -10 3 -15 -1 -12 -10z"></path><path d="M1289 973 c-4 -58 4 -240 12 -248 5 -5 9 33 9 103 0 62 3 112 6 112 14 0 42 -21 48 -35 3 -9 1 -26 -5 -37 -8 -16 -8 -22 2 -29 21 -12 29 -1 29 41 0 31 -6 43 -27 58 -42 29 -73 44 -74 35z"></path><path d="M1477 949 c7 -7 15 -10 18 -7 3 3 -2 9 -12 12 -14 6 -15 5 -6 -5z"></path><path d="M1090 856 c0 -3 9 -10 20 -16 11 -6 20 -8 20 -6 0 3 -9 10 -20 16 -11 6 -20 8 -20 6z"></path><path d="M1132 810 c-6 -11 -12 -21 -12 -23 0 -10 109 -39 124 -34 24 10 0 44 -43 63 -44 19 -54 18 -69 -6z"></path><path d="M3485 790 c-27 -16 -54 -31 -60 -33 -5 -3 -8 -7 -5 -10 4 -5 101 50 118 67 11 12 -5 5 -53 -24z"></path><path d="M3797 801 c-45 -29 -45 -36 1 -10 36 19 46 21 62 11 28 -17 38 -15 14 3 -25 19 -43 18 -77 -4z"></path><path d="M1407 719 c-49 -28 -91 -48 -94 -46 -2 3 -15 -6 -28 -19 -24 -24 -26 -24 -57 -9 -33 16 -33 16 -10 -2 21 -17 22 -22 11 -45 -10 -24 -9 -29 17 -52 33 -29 14 -37 -24 -10 -13 9 -26 13 -29 10 -8 -8 -21 1 142 -91 187 -105 208 -115 252 -115 43 0 136 49 153 80 15 28 34 25 107 -15 34 -20 63 -34 63 -31 0 2 -35 25 -78 49 -92 53 -106 68 -98 101 6 25 5 25 -61 -13 -38 -21 -81 -41 -98 -45 -16 -3 4 10 45 30 41 20 83 43 93 52 25 22 22 67 -6 85 -21 13 -28 13 -82 -9 -66 -27 -102 -30 -128 -10 -15 11 -15 15 -3 25 8 7 25 9 39 6 16 -4 39 1 65 14 23 12 48 21 57 21 8 0 14 6 13 13 -2 7 7 12 20 11 12 0 22 3 22 8 0 5 6 6 13 2 9 -6 9 -4 0 6 -8 9 -39 15 -80 16 -38 1 -85 9 -107 18 -21 9 -39 16 -40 16 0 0 -41 -23 -89 -51z m71 -47 c21 -16 22 -20 8 -31 -13 -11 -20 -9 -46 9 -16 12 -30 26 -30 31 0 15 44 10 68 -9z m27 -78 l30 -11 -37 -8 c-49 -9 -138 19 -146 47 -4 15 -7 17 -14 6 -8 -10 -9 -10 -5 2 2 8 9 15 15 15 5 0 14 3 17 7 4 4 31 -5 59 -20 28 -15 65 -32 81 -38z m-85 -56 c0 -4 -8 -5 -17 -1 -19 6 -113 64 -113 69 0 2 29 -11 65 -29 36 -18 65 -35 65 -39z m290 -72 c0 -3 -4 -8 -10 -11 -5 -3 -10 -1 -10 4 0 6 5 11 10 11 6 0 10 -2 10 -4z"></path><path d="M3145 760 c-3 -6 1 -7 9 -4 18 7 21 14 7 14 -6 0 -13 -4 -16 -10z"></path><path d="M3342 754 c-25 -17 -29 -34 -7 -34 19 0 21 -66 1 -77 -20 -12 -33 -44 -34 -87 -1 -21 -7 -45 -13 -53 -8 -9 -8 -13 -2 -11 6 2 22 -13 35 -32 30 -45 88 -74 131 -66 18 3 85 36 149 74 64 37 130 75 147 84 42 23 46 40 25 92 -17 41 -24 46 -97 76 -43 18 -81 30 -84 26 -3 -3 -1 -6 7 -6 20 0 140 -62 140 -72 0 -5 -5 -6 -10 -3 -6 4 -28 -3 -50 -14 -22 -11 -42 -16 -45 -11 -3 5 -1 11 5 15 42 26 -42 89 -107 81 -44 -5 -90 -23 -116 -45 -26 -22 -47 -22 -47 -1 0 10 4 21 9 24 9 6 2 56 -8 56 -4 0 -17 -7 -29 -16z m368 -168 c0 -3 -14 -14 -31 -26 -36 -27 -54 -17 -19 10 23 18 50 26 50 16z"></path><path d="M935 707 c-16 -7 -33 -16 -37 -22 -5 -6 -11 -5 -17 4 -5 7 -14 10 -20 6 -9 -5 -9 -10 0 -21 15 -19 6 -28 -21 -19 -11 4 -19 13 -18 23 2 11 -8 18 -36 24 -62 13 -62 5 -1 -30 71 -40 91 -40 146 -1 73 52 74 62 4 36z"></path><path d="M3024 694 c-18 -14 -18 -15 4 -4 12 6 22 13 22 15 0 8 -5 6 -26 -11z"></path><path d="M3275 666 c-11 -7 -44 -28 -73 -46 -29 -18 -51 -34 -49 -36 3 -4 152 78 165 90 11 11 -23 5 -43 -8z"></path><path d="M920 580 c-6 -83 3 -99 53 -100 22 0 27 4 27 23 0 29 -18 47 -46 47 -21 0 -23 6 -26 53 -3 48 -4 46 -8 -23z"></path><path d="M3108 564 c-38 -20 -36 -28 2 -9 17 9 30 18 30 20 0 7 -1 6 -32 -11z"></path><path d="M3187 445 c-61 -38 -100 -68 -72 -53 35 18 155 91 155 94 0 9 -19 0 -83 -41z"></path><path d="M3054 364 c-18 -14 -18 -15 4 -4 12 6 22 13 22 15 0 8 -5 6 -26 -11z"></path><path d="M1940 356 c0 -7 71 -49 75 -44 2 2 -14 14 -36 26 -21 12 -39 21 -39 18z"></path><path d="M2360 330 c0 -5 7 -10 15 -10 8 0 15 5 15 10 0 6 -7 10 -15 10 -8 0 -15 -4 -15 -10z"></path></g></svg> 